<?xml version="1.0" encoding="iso-8859-1"?>
<!-- Generator: Adobe Illustrator 16.0.0, SVG Export Plug-In . SVG Version: 6.00 Build 0)  -->
<!DOCTYPE svg PUBLIC "-//W3C//DTD SVG 1.1//EN" "http://www.w3.org/Graphics/SVG/1.1/DTD/svg11.dtd">
<svg version="1.1" id="Capa_1" xmlns="http://www.w3.org/2000/svg" xmlns:xlink="http://www.w3.org/1999/xlink" x="0px" y="0px"
	 width="457.57px" height="457.57px" viewBox="0 0 457.57 457.57" style="enable-background:new 0 0 457.57 457.57;"
	 xml:space="preserve">
<g>
	<g>
		<path d="M415.203,81.104H42.367C18.969,81.104,0,100.072,0,123.472v37.1h457.57v-37.1
			C457.57,100.072,438.602,81.104,415.203,81.104z"/>
		<path d="M0,334.099c0,23.398,18.969,42.367,42.367,42.367h372.836c23.398,0,42.367-18.969,42.367-42.367V205.57H0V334.099z
			 M313.794,249.776c8.65,0,16.621,2.896,23.006,7.768c6.387-4.87,14.355-7.768,23.008-7.768c20.974,0,37.978,17.002,37.978,37.977
			c0,20.976-17.004,37.979-37.978,37.979c-8.651,0-16.621-2.897-23.008-7.769c-6.385,4.869-14.354,7.769-23.006,7.769
			c-20.975,0-37.979-17.004-37.979-37.979C275.814,266.778,292.819,249.776,313.794,249.776z M61.584,301.676
			c0-3.16,2.562-5.722,5.72-5.722h88.181c3.158,0,5.719,2.562,5.719,5.722v17.397c0,3.158-2.561,5.719-5.719,5.719H67.304
			c-3.158,0-5.72-2.561-5.72-5.719V301.676z"/>
	</g>
</g>
<g>
</g>
<g>
</g>
<g>
</g>
<g>
</g>
<g>
</g>
<g>
</g>
<g>
</g>
<g>
</g>
<g>
</g>
<g>
</g>
<g>
</g>
<g>
</g>
<g>
</g>
<g>
</g>
<g>
</g>
</svg>
